# xmcd
#
# Track frame offsets: 
#        150
#        11122
#        21937
#        36882
#        46110
#        54442
#        63580
#        79957
#        90517
#        106740
#        123080
#        135192
#        149475
#        158540
#
# Disc length: 2328 seconds
#
# Revision: 0
# Processed by: cddbd v1.5.1PL2 Copyright (c) Steve Scherf et al.
# Submitted via: ExactAudioCopy v0.95b3
#
DISCID=aa09160e
DTITLE=Tellervo Pikkaraisen runoja sävellettynä - Hyvä on Herra
DYEAR=1900
DGENRE=Gospel
TTITLE0=Hyvä on Herra
TTITLE1=Oi Herrani Jeesus
TTITLE2=Oi Herra valtaa
TTITLE3=Vierellä kuljet
TTITLE4=Kiitoslaulu
TTITLE5=Ikiaikojen kallio
TTITLE6=Kädessäsi Herra soi
TTITLE7=Rakkahin Jeesus
TTITLE8=Sinun kunniasi Herra
TTITLE9=Golgatan Voittaja
TTITLE10=Armolaulu
TTITLE11=Armoistuimen eteen
TTITLE12=Kirkkauden Kotiin
TTITLE13=Pyhä Veri
EXTD=
EXTT0=
EXTT1=
EXTT2=
EXTT3=
EXTT4=
EXTT5=
EXTT6=
EXTT7=
EXTT8=
EXTT9=
EXTT10=
EXTT11=
EXTT12=
EXTT13=
PLAYORDER=
